<svg id="e1YdwrN2pWl1" xmlns="http://www.w3.org/2000/svg" xmlns:xlink="http://www.w3.org/1999/xlink" viewBox="0 0 792 792" shape-rendering="geometricPrecision" text-rendering="geometricPrecision"><g transform="matrix(.903271 0 0 0.779938 38.304684 87.144552)"><path d="M521.806,792c0,0,71.889,0,71.889-71.997v-648.006C593.694,0,521.806,0,521.806,0h-251.612c0,0-71.889,0-71.889,71.997v648.006C198.306,792,270.194,792,270.194,792h251.612ZM396,762.022c-19.841,0-35.944-16.104-35.944-35.944c0-19.842,16.103-35.944,35.944-35.944c19.842,0,35.944,16.103,35.944,35.944s-16.102,35.944-35.944,35.944ZM342.083,43.888c0-4.457,2.121-7.944,4.78-7.944h98.272c2.624,0,4.781,3.559,4.781,7.944v2.121c0,4.457-2.157,7.944-4.781,7.944h-98.272c-2.624,0-4.78-3.559-4.78-7.944v-2.121ZM234.25,89.861h323.5v575.111h-323.5v-575.111Z"/></g><g transform="matrix(1.799999 0.002035-.001899 1.679999-.738526-.778696)"><rect width="106.342711" height="20.255754" rx="0" ry="0" transform="matrix(1.07619 0 0 1.8 0 0)" fill="#080808" stroke-width="0" stroke-linecap="round" stroke-linejoin="round"/><rect width="106.342711" height="20.255754" rx="0" ry="0" transform="matrix(1.07619 0 0 1.8 0 0)" fill="#080808" stroke-width="0" stroke-linecap="round" stroke-linejoin="round"/><rect width="106.342711" height="20.255754" rx="0" ry="0" transform="matrix(.008111 1.076159-1.799949 0.013566 36.459321 0)" fill="#080808" stroke-width="0" stroke-linecap="round" stroke-linejoin="round"/><rect width="106.342711" height="20.255754" rx="0" ry="0" transform="matrix(.008111 1.076159-1.799949 0.013566 36.459321 0)" fill="#080808" stroke-width="0" stroke-linecap="round" stroke-linejoin="round"/></g><g transform="matrix(-1.799889-.019992 0.01877-1.689896 791.701438 793.336794)"><rect width="106.342711" height="20.255754" rx="0" ry="0" transform="matrix(1.07619 0 0 1.8 0 0)" fill="#080808" stroke-width="0" stroke-linecap="round" stroke-linejoin="round"/><rect width="106.342711" height="20.255754" rx="0" ry="0" transform="matrix(1.07619 0 0 1.8 0 0)" fill="#080808" stroke-width="0" stroke-linecap="round" stroke-linejoin="round"/><rect width="106.342711" height="20.255754" rx="0" ry="0" transform="matrix(.008111 1.076159-1.799949 0.013566 36.459321 0)" fill="#080808" stroke-width="0" stroke-linecap="round" stroke-linejoin="round"/><rect width="106.342711" height="20.255754" rx="0" ry="0" transform="matrix(.008111 1.076159-1.799949 0.013566 36.459321 0)" fill="#080808" stroke-width="0" stroke-linecap="round" stroke-linejoin="round"/></g><g transform="matrix(.000256 1.8-1.69 0.00024 791.970733-.999993)"><rect width="106.342711" height="20.255754" rx="0" ry="0" transform="matrix(1.07619 0 0 1.8 0 0)" fill="#080808" stroke-width="0" stroke-linecap="round" stroke-linejoin="round"/><rect width="106.342711" height="20.255754" rx="0" ry="0" transform="matrix(1.07619 0 0 1.8 0 0)" fill="#080808" stroke-width="0" stroke-linecap="round" stroke-linejoin="round"/><rect width="106.342711" height="20.255754" rx="0" ry="0" transform="matrix(.008111 1.076159-1.799949 0.013566 36.459321 0)" fill="#080808" stroke-width="0" stroke-linecap="round" stroke-linejoin="round"/><rect width="106.342711" height="20.255754" rx="0" ry="0" transform="matrix(.008111 1.076159-1.799949 0.013566 36.459321 0)" fill="#080808" stroke-width="0" stroke-linecap="round" stroke-linejoin="round"/></g><g transform="matrix(.008682-1.799979 1.68998 0.008151-.900049 792.04538)"><rect width="106.342711" height="20.255754" rx="0" ry="0" transform="matrix(1.07619 0 0 1.8 0 0)" fill="#080808" stroke-width="0" stroke-linecap="round" stroke-linejoin="round"/><rect width="106.342711" height="20.255754" rx="0" ry="0" transform="matrix(1.07619 0 0 1.8 0 0)" fill="#080808" stroke-width="0" stroke-linecap="round" stroke-linejoin="round"/><rect width="106.342711" height="20.255754" rx="0" ry="0" transform="matrix(.008111 1.076159-1.799949 0.013566 36.459321 0)" fill="#080808" stroke-width="0" stroke-linecap="round" stroke-linejoin="round"/><rect width="106.342711" height="20.255754" rx="0" ry="0" transform="matrix(.008111 1.076159-1.799949 0.013566 36.459321 0)" fill="#080808" stroke-width="0" stroke-linecap="round" stroke-linejoin="round"/></g></svg>
