<?xml version="1.0" ?><svg fill="none" height="24" viewBox="0 0 24 24" width="24" xmlns="http://www.w3.org/2000/svg"><path clip-rule="evenodd" d="M12 2C9.23858 2 7 4.23858 7 7C7 9.76142 9.23858 12 12 12C7.02944 12 3 16.0294 3 21C3 21.5523 3.44772 22 4 22H20C20.5523 22 21 21.5523 21 21C21 16.0294 16.9706 12 12 12C14.7614 12 17 9.76142 17 7C17 4.23858 14.7614 2 12 2Z" fill="black" fill-rule="evenodd"/><path clip-rule="evenodd" d="M3.5 2C3.5 1.44772 3.94772 1 4.5 1H7.5V3H5.5V5.5H3.5V2ZM18.5 3H16.5V1H19.5C20.0523 1 20.5 1.44772 20.5 2V5.5H18.5V3ZM5.5 11V8.5H3.5V12C3.5 12.5523 3.94772 13 4.5 13H7.5V11H5.5ZM18.5 11V8.5H20.5V12C20.5 12.5523 20.0523 13 19.5 13H16.5V11H18.5Z" fill="black" fill-rule="evenodd"/></svg>