<?xml version="1.0" ?><svg xmlns="http://www.w3.org/2000/svg" width="24" height="24" viewBox="0 0 24 24" fill="none"><path d="M9 2H5C3.34315 2 2 3.34315 2 5V8H4V5C4 4.44772 4.44772 4 5 4H9V2Z" fill="black"/><path d="M16 4V2H19C20.6569 2 22 3.34315 22 5V8H20V5C20 4.44772 19.5523 4 19 4H16Z" fill="black"/><path d="M16 20H19C19.5523 20 20 19.5523 20 19V16H22V19C22 20.6569 20.6569 22 19 22H16V20Z" fill="black"/><path d="M4 16V19C4 19.5523 4.44772 20 5 20H9V22H5C3.34315 22 2 20.6569 2 19V16H4Z" fill="black"/><path fill-rule="evenodd" clip-rule="evenodd" d="M9 12C9 10.3431 10.3431 9 12 9C13.6569 9 15 10.3431 15 12C15 13.6569 13.6569 15 12 15C10.3431 15 9 13.6569 9 12ZM12 11C11.4477 11 11 11.4477 11 12C11 12.5523 11.4477 13 12 13C12.5523 13 13 12.5523 13 12C13 11.4477 12.5523 11 12 11Z" fill="black"/><path fill-rule="evenodd" clip-rule="evenodd" d="M19.9479 11.6795C19.9481 11.68 19.9482 11.6804 19.0007 12C19.9482 12.3196 19.9481 12.32 19.9479 12.3205L19.9475 12.3216L19.9467 12.324L19.9445 12.3303L19.9382 12.3484C19.9331 12.3628 19.9262 12.3819 19.9175 12.4054C19.9 12.4523 19.875 12.517 19.842 12.5967C19.7762 12.756 19.6781 12.9768 19.5434 13.2387C19.2751 13.7603 18.8557 14.4564 18.2482 15.1558C17.0232 16.5661 15.0163 18 12.0007 18C8.98499 18 6.97815 16.5661 5.75306 15.1558C5.1456 14.4564 4.72623 13.7603 4.45791 13.2387C4.32323 12.9768 4.2251 12.756 4.15927 12.5967C4.12632 12.517 4.10135 12.4523 4.08385 12.4054C4.07509 12.3819 4.0682 12.3628 4.06309 12.3484L4.05677 12.3303L4.05461 12.324L4.05377 12.3216L4.05341 12.3205C4.05325 12.32 4.05309 12.3196 5.00065 12C4.05309 11.6804 4.05325 11.68 4.05341 11.6795L4.05377 11.6784L4.05461 11.676L4.05677 11.6697L4.06309 11.6516C4.0682 11.6372 4.07509 11.6181 4.08385 11.5946C4.10135 11.5477 4.12632 11.483 4.15927 11.4033C4.2251 11.244 4.32323 11.0232 4.45791 10.7613C4.72623 10.2397 5.1456 9.54355 5.75306 8.84422C6.97815 7.43385 8.98499 6 12.0007 6C15.0163 6 17.0232 7.43385 18.2482 8.84422C18.8557 9.54355 19.2751 10.2397 19.5434 10.7613C19.6781 11.0232 19.7762 11.244 19.842 11.4033C19.875 11.483 19.9 11.5477 19.9175 11.5946C19.9262 11.6181 19.9331 11.6372 19.9382 11.6516L19.9445 11.6697L19.9467 11.676L19.9475 11.6784L19.9479 11.6795ZM6.23642 12.3238C6.17358 12.2017 6.12167 12.0925 6.07997 12C6.12167 11.9075 6.17358 11.7983 6.23642 11.6762C6.45033 11.2603 6.78464 10.7064 7.26297 10.1558C8.20945 9.06615 9.7026 8 12.0007 8C14.2987 8 15.7919 9.06615 16.7383 10.1558C17.2167 10.7064 17.551 11.2603 17.7649 11.6762C17.8277 11.7983 17.8796 11.9075 17.9213 12C17.8796 12.0925 17.8277 12.2017 17.7649 12.3238C17.551 12.7397 17.2167 13.2936 16.7383 13.8442C15.7919 14.9339 14.2987 16 12.0007 16C9.7026 16 8.20945 14.9339 7.26297 13.8442C6.78464 13.2936 6.45033 12.7397 6.23642 12.3238Z" fill="black"/><path d="M5.00065 12L4.05341 12.3205L3.94531 12L4.05341 11.6795L5.00065 12Z" fill="black"/><path d="M19.0007 12L19.9479 11.6795L20.056 12L19.9479 12.3205L19.0007 12Z" fill="black"/></svg>